<?xml version="1.0" encoding="UTF-8"?>
<!DOCTYPE svg PUBLIC "-//W3C//DTD SVG 1.1//EN" "http://www.w3.org/Graphics/SVG/1.1/DTD/svg11.dtd">
<svg xmlns="http://www.w3.org/2000/svg" version="1.1" width="512px" height="512px" style="shape-rendering:geometricPrecision; text-rendering:geometricPrecision; image-rendering:optimizeQuality; fill-rule:evenodd; clip-rule:evenodd" xmlns:xlink="http://www.w3.org/1999/xlink">
<g><path style="opacity:0.995" fill="#5b362a" d="M 147.5,-0.5 C 156.833,-0.5 166.167,-0.5 175.5,-0.5C 202.236,4.03527 223.903,17.0353 240.5,38.5C 240.5,64.1667 240.5,89.8333 240.5,115.5C 224.329,116.172 211.163,122.839 201,135.5C 186.27,163.619 163.103,179.453 131.5,183C 120.172,183.5 108.838,183.667 97.5,183.5C 98.3542,172.03 93.3542,164.53 82.5,161C 76.1754,160.5 69.8421,160.334 63.5,160.5C 63.8276,149.986 63.4942,139.653 62.5,129.5C 62.1547,113.467 62.6547,97.4672 64,81.5C 74.2115,36.121 102.045,8.78768 147.5,-0.5 Z"/></g>
<g><path style="opacity:1" fill="#401409" d="M 240.5,38.5 C 243.557,42.2576 246.39,46.2576 249,50.5C 259.511,72.1885 270.011,93.8552 280.5,115.5C 267.167,115.5 253.833,115.5 240.5,115.5C 240.5,89.8333 240.5,64.1667 240.5,38.5 Z"/></g>
<g><path style="opacity:1" fill="#9c6039" d="M 119.5,81.5 C 129.5,81.5 139.5,81.5 149.5,81.5C 149.5,91.5 149.5,101.5 149.5,111.5C 139.5,111.5 129.5,111.5 119.5,111.5C 119.5,101.5 119.5,91.5 119.5,81.5 Z"/></g>
<g><path style="opacity:0.996" fill="#fe415b" d="M 240.5,115.5 C 240.5,138.167 240.5,160.833 240.5,183.5C 240.5,183.833 240.5,184.167 240.5,184.5C 225.46,195.707 212.626,209.04 202,224.5C 185.116,257.314 185.45,289.981 203,322.5C 212.328,336.908 224.495,348.242 239.5,356.5C 239.5,357.167 239.833,357.5 240.5,357.5C 240.5,383.833 240.5,410.167 240.5,436.5C 235.405,436.779 230.405,436.445 225.5,435.5C 215.008,434.268 204.674,432.268 194.5,429.5C 126.964,403.93 91.2974,354.93 87.5,282.5C 90.2487,249.429 93.5821,216.429 97.5,183.5C 108.838,183.667 120.172,183.5 131.5,183C 163.103,179.453 186.27,163.619 201,135.5C 211.163,122.839 224.329,116.172 240.5,115.5 Z"/></g>
<g><path style="opacity:1" fill="#e50258" d="M 240.5,115.5 C 253.833,115.5 267.167,115.5 280.5,115.5C 284.134,122.768 287.801,130.101 291.5,137.5C 274.5,152.833 257.5,168.167 240.5,183.5C 240.5,160.833 240.5,138.167 240.5,115.5 Z"/></g>
<g><path style="opacity:0.955" fill="#9d6039" d="M 62.5,129.5 C 63.4942,139.653 63.8276,149.986 63.5,160.5C 54.5,160.5 45.5,160.5 36.5,160.5C 36.5,150.167 36.5,139.833 36.5,129.5C 45.1667,129.5 53.8333,129.5 62.5,129.5 Z"/></g>
<g><path style="opacity:1" fill="#cfcee5" d="M 291.5,137.5 C 312.436,179.706 333.103,222.04 353.5,264.5C 317.424,289.966 296.091,324.632 289.5,368.5C 272.121,369.292 255.787,365.625 240.5,357.5C 239.833,357.5 239.5,357.167 239.5,356.5C 240.499,299.336 240.832,242.002 240.5,184.5C 240.5,184.167 240.5,183.833 240.5,183.5C 257.5,168.167 274.5,152.833 291.5,137.5 Z"/></g>
<g><path style="opacity:1" fill="#ece5f1" d="M 240.5,184.5 C 240.832,242.002 240.499,299.336 239.5,356.5C 224.495,348.242 212.328,336.908 203,322.5C 185.45,289.981 185.116,257.314 202,224.5C 212.626,209.04 225.46,195.707 240.5,184.5 Z"/></g>
<g><path style="opacity:1" fill="#40140a" d="M 353.5,264.5 C 371.008,298.851 388.008,333.518 404.5,368.5C 366.167,368.5 327.833,368.5 289.5,368.5C 296.091,324.632 317.424,289.966 353.5,264.5 Z"/></g>
<g><path style="opacity:1" fill="#e50058" d="M 240.5,357.5 C 255.787,365.625 272.121,369.292 289.5,368.5C 327.833,368.5 366.167,368.5 404.5,368.5C 416.009,390.853 427.009,413.519 437.5,436.5C 402.167,436.5 366.833,436.5 331.5,436.5C 316.167,436.5 300.833,436.5 285.5,436.5C 275.167,436.5 264.833,436.5 254.5,436.5C 249.833,436.5 245.167,436.5 240.5,436.5C 240.5,410.167 240.5,383.833 240.5,357.5 Z"/></g>
<g><path style="opacity:1" fill="#9d6238" d="M 194.5,429.5 C 204.674,432.268 215.008,434.268 225.5,435.5C 225.5,460.833 225.5,486.167 225.5,511.5C 215.167,511.5 204.833,511.5 194.5,511.5C 194.5,484.167 194.5,456.833 194.5,429.5 Z"/></g>
<g><path style="opacity:1" fill="#5c3528" d="M 254.5,436.5 C 264.833,436.5 275.167,436.5 285.5,436.5C 285.5,461.5 285.5,486.5 285.5,511.5C 275.5,511.5 265.5,511.5 255.5,511.5C 254.51,486.575 254.177,461.575 254.5,436.5 Z"/></g>
<g><path style="opacity:1" fill="#401409" d="M 331.5,436.5 C 366.833,436.5 402.167,436.5 437.5,436.5C 450.395,461.16 462.728,486.16 474.5,511.5C 438.833,511.5 403.167,511.5 367.5,511.5C 355.773,486.378 343.773,461.378 331.5,436.5 Z"/></g>
</svg>
